<?xml version="1.0" encoding="utf-8"?>
<!-- Generator: Adobe Illustrator 19.0.0, SVG Export Plug-In . SVG Version: 6.00 Build 0)  -->
<svg version="1.1" id="Layer_1" xmlns="http://www.w3.org/2000/svg" xmlns:xlink="http://www.w3.org/1999/xlink" x="0px" y="0px"
	 width="180px" height="82.2px" viewBox="0 0 180 82.2" style="enable-background:new 0 0 180 82.2;" xml:space="preserve">
<style type="text/css">
	.st0{fill:#274652;}
	.st1{fill:#FFFFFF;}
</style>
<polygon id="XMLID_19_" class="st0" points="67.9,0 0,0 0,82.2 108.3,82.2 108.3,72.6 114.8,72.6 114.8,82.2 180,82.2 180,37.7 
	117.4,37.7 106.3,37.6 106.3,4.1 102.2,4.1 102.2,0 68,0 "/>
<polygon id="XMLID_18_" class="st1" points="5.5,14.4 21.1,14.4 21.1,17.8 12.8,17.8 12.8,21 9.1,21 9.1,24.1 5.5,24.1 5.5,39 
	31.9,39 31.9,30.2 16.3,30.2 16.3,26.8 24.7,26.8 24.7,23.6 28.3,23.6 28.3,20.4 31.9,20.4 31.9,5.5 5.5,5.5 "/>
<path id="XMLID_15_" class="st1" d="M66.5,9.6h-4.1V5.5H39.2v4.1h-3.8v25.3h3.8V39h23.2v-4.1h4.1V9.6z M55.7,30.3h-9.7V14.5h9.7
	V30.3z"/>
<path id="XMLID_12_" class="st1" d="M73.5,39h23.2v-4.1h4.1V9.6h-4.1V5.5H73.5v4.1h-3.8v25.3h3.8V39z M80.2,14.5H90v15.8h-9.7V14.5z
	"/>
<polygon id="XMLID_11_" class="st1" points="21.1,47.3 17.9,47.3 17.9,51.9 16.3,51.9 16.4,43.2 5.7,43.1 5.4,76.6 16,76.7 16.1,68 
	17.7,68 17.7,72.6 20.8,72.6 20.8,76.7 31.5,76.9 31.6,65.1 28,65.1 28.1,61.9 24.8,61.9 24.8,58.2 28.1,58.2 28.1,55.1 31.7,55.1 
	31.8,43.3 21.1,43.2 "/>
<polygon id="XMLID_10_" class="st1" points="34.8,76.7 60.2,76.7 60.2,67.9 45.9,67.9 45.9,64.4 60.2,64.4 60.2,55.5 45.9,55.5 
	45.9,52 60.2,52 60.2,43.2 34.8,43.2 "/>
<polygon id="XMLID_9_" class="st1" points="63.3,76.7 88.7,76.7 88.7,67.9 74.4,67.9 74.4,64.4 88.7,64.4 88.7,55.5 74.4,55.5 
	74.4,52 88.7,52 88.7,43.2 63.3,43.2 "/>
<path id="XMLID_6_" class="st1" d="M91.8,76.7h10.9v-9.6h14.7V43.2H91.8V76.7z M102.9,51.1h3.5V59h-3.5V51.1z"/>
<polygon id="XMLID_5_" class="st1" points="120.4,76.7 145.7,76.7 145.7,67.9 131.4,67.9 131.4,64.4 145.7,64.4 145.7,55.5 
	131.4,55.5 131.4,52 145.7,52 145.7,43.2 120.4,43.2 "/>
<path id="XMLID_2_" class="st1" d="M174.5,62.4V43.2h-25.6v33.5h10.9V64.6h3.7v12.1h10.9V63.9h-2.9v-1.6H174.5z M163.4,55.3h-3.5
	v-3.2h3.5V55.3z"/>
<g id="XMLID_32_">
</g>
<g id="XMLID_33_">
</g>
<g id="XMLID_34_">
</g>
<g id="XMLID_35_">
</g>
<g id="XMLID_36_">
</g>
<g id="XMLID_37_">
</g>
<g id="XMLID_38_">
</g>
<g id="XMLID_39_">
</g>
<g id="XMLID_40_">
</g>
<g id="XMLID_41_">
</g>
<g id="XMLID_42_">
</g>
<g id="XMLID_43_">
</g>
<g id="XMLID_44_">
</g>
<g id="XMLID_45_">
</g>
<g id="XMLID_46_">
</g>
</svg>
