<?xml version="1.0" encoding="utf-8"?>
<!-- Generator: Adobe Illustrator 19.0.0, SVG Export Plug-In . SVG Version: 6.00 Build 0)  -->
<svg version="1.1" id="Layer_1" xmlns="http://www.w3.org/2000/svg" xmlns:xlink="http://www.w3.org/1999/xlink" x="0px" y="0px"
	 width="192px" height="81px" viewBox="0 0 192 81" style="enable-background:new 0 0 192 81;" xml:space="preserve">
<style type="text/css">
	.st0{fill:#FFFFFF;}
</style>
<polygon id="XMLID_18_" class="st0" points="0,10 18,10 18,14 8,14 8,18 4,18 4,21 0,21 0,38 30,38 30,28 13,28 13,24 22,24 22,21 
	26,21 26,17 30,17 30,0 0,0 "/>
<path id="XMLID_15_" class="st0" d="M69,4h-5V0H38v4h-4v29h4v5h26v-5h5V4z M57,28H46V10h11V28z"/>
<path id="XMLID_12_" class="st0" d="M77,38h26v-5h5V5h-5V0H77v5h-4v28h4V38z M85,10h11v18H85V10z"/>
<polygon id="XMLID_11_" class="st0" points="18,47 14,47 14,52 12,52 12,43 0,43 0,81 12,81 12,71 14,71 14,76 18,76 18,81 30,81 
	30,68 26,68 26,64 22,64 22,60 26,60 26,56 30,56 30,43 18,43 "/>
<polygon id="XMLID_10_" class="st0" points="33,81 62,81 62,71 46,71 46,67 62,67 62,57 46,57 46,53 62,53 62,43 33,43 "/>
<polygon id="XMLID_9_" class="st0" points="66,81 95,81 95,71 78,71 78,67 95,67 95,57 78,57 78,53 95,53 95,43 66,43 "/>
<path id="XMLID_6_" class="st0" d="M98,81h12V70h17V43H98V81z M111,52h4v9h-4V52z"/>
<polygon id="XMLID_5_" class="st0" points="130,81 159,81 159,71 143,71 143,67 159,67 159,57 143,57 143,53 159,53 159,43 130,43 
	"/>
<path id="XMLID_2_" class="st0" d="M192,64V43h-29v38h12V67h5v14h12V66h-3v-2H192z M179,57h-4v-4h4V57z"/>
<g id="XMLID_31_">
</g>
<g id="XMLID_32_">
</g>
<g id="XMLID_33_">
</g>
<g id="XMLID_34_">
</g>
<g id="XMLID_35_">
</g>
<g id="XMLID_36_">
</g>
<g id="XMLID_37_">
</g>
<g id="XMLID_38_">
</g>
<g id="XMLID_39_">
</g>
<g id="XMLID_40_">
</g>
<g id="XMLID_41_">
</g>
<g id="XMLID_42_">
</g>
<g id="XMLID_43_">
</g>
<g id="XMLID_44_">
</g>
<g id="XMLID_45_">
</g>
</svg>
